<svg xmlns="http://www.w3.org/2000/svg" fill="none" stroke="currentColor" stroke-width="2" stroke-linecap="round" stroke-linejoin="round">
<symbol id="arrow-up-right" viewBox="0 0 24 24"><path d="M7 7h10v10"></path><path d="M7 17 17 7"></path></symbol>
<symbol id="arrow-right" viewBox="0 0 24 24"><path d="M5 12h14"></path><path d="m12 5 7 7-7 7"></path></symbol>
<symbol id="sparkles" viewBox="0 0 24 24"><path d="M9.937 15.5A2 2 0 0 0 8.5 14.063l-6.135-1.582a.5.5 0 0 1 0-.962L8.5 9.936A2 2 0 0 0 9.937 8.5l1.582-6.135a.5.5 0 0 1 .963 0L14.063 8.5A2 2 0 0 0 15.5 9.937l6.135 1.581a.5.5 0 0 1 0 .964L15.5 14.063a2 2 0 0 0-1.437 1.437l-1.582 6.135a.5.5 0 0 1-.963 0z"></path><path d="M20 3v4"></path><path d="M22 5h-4"></path><path d="M4 17v2"></path><path d="M5 18H3"></path></symbol>
<symbol id="x" viewBox="0 0 24 24"><path d="M18 6 6 18"></path><path d="m6 6 12 12"></path></symbol>
<symbol id="mic" viewBox="0 0 24 24"><path d="M12 2a3 3 0 0 0-3 3v7a3 3 0 0 0 6 0V5a3 3 0 0 0-3-3Z"></path><path d="M19 10v2a7 7 0 0 1-14 0v-2"></path><line x1="12" x2="12" y1="19" y2="22"></line></symbol>
<symbol id="message-square" viewBox="0 0 24 24"><path d="M21 15a2 2 0 0 1-2 2H7l-4 4V5a2 2 0 0 1 2-2h14a2 2 0 0 1 2 2z"></path></symbol>
<symbol id="quote" viewBox="0 0 24 24"><path d="M16 3a2 2 0 0 0-2 2v6a2 2 0 0 0 2 2 1 1 0 0 1 1 1v1a2 2 0 0 1-2 2 1 1 0 0 0-1 1v2a1 1 0 0 0 1 1 6 6 0 0 0 6-6V5a2 2 0 0 0-2-2z"></path><path d="M5 3a2 2 0 0 0-2 2v6a2 2 0 0 0 2 2 1 1 0 0 1 1 1v1a2 2 0 0 1-2 2 1 1 0 0 0-1 1v2a1 1 0 0 0 1 1 6 6 0 0 0 6-6V5a2 2 0 0 0-2-2z"></path></symbol>
<symbol id="file-text" viewBox="0 0 24 24"><path d="M15 2H6a2 2 0 0 0-2 2v16a2 2 0 0 0 2 2h12a2 2 0 0 0 2-2V7Z"></path><path d="M14 2v4a2 2 0 0 0 2 2h4"></path><path d="M10 9H8"></path><path d="M16 13H8"></path><path d="M16 17H8"></path></symbol>
<symbol id="check" viewBox="0 0 24 24"><path d="M20 6 9 17l-5-5"></path></symbol>
<symbol id="clipboard-list" viewBox="0 0 24 24"><rect width="8" height="4" x="8" y="2" rx="1" ry="1"></rect><path d="M16 4h2a2 2 0 0 1 2 2v14a2 2 0 0 1-2 2H6a2 2 0 0 1-2-2V6a2 2 0 0 1 2-2h2"></path><path d="M12 11h4"></path><path d="M12 16h4"></path><path d="M8 11h.01"></path><path d="M8 16h.01"></path></symbol>
<symbol id="image" viewBox="0 0 24 24"><rect width="18" height="18" x="3" y="3" rx="2" ry="2"></rect><circle cx="9" cy="9" r="2"></circle><path d="m21 15-3.086-3.086a2 2 0 0 0-2.828 0L6 21"></path></symbol>
<symbol id="clipboard-check" viewBox="0 0 24 24"><rect width="8" height="4" x="8" y="2" rx="1" ry="1"></rect><path d="M16 4h2a2 2 0 0 1 2 2v14a2 2 0 0 1-2 2H6a2 2 0 0 1-2-2V6a2 2 0 0 1 2-2h2"></path><path d="m9 14 2 2 4-4"></path></symbol>
<symbol id="phone" viewBox="0 0 24 24"><path d="M22 16.92v3a2 2 0 0 1-2.18 2 19.79 19.79 0 0 1-8.63-3.07 19.5 19.5 0 0 1-6-6 19.79 19.79 0 0 1-3.07-8.67A2 2 0 0 1 4.11 2h3a2 2 0 0 1 2 1.72 12.84 12.84 0 0 0 .7 2.81 2 2 0 0 1-.45 2.11L8.09 9.91a16 16 0 0 0 6 6l1.27-1.27a2 2 0 0 1 2.11-.45 12.84 12.84 0 0 0 2.81.7A2 2 0 0 1 22 16.92z"></path></symbol>
<symbol id="qr-code" viewBox="0 0 24 24"><rect width="5" height="5" x="3" y="3" rx="1"></rect><rect width="5" height="5" x="16" y="3" rx="1"></rect><rect width="5" height="5" x="3" y="16" rx="1"></rect><path d="M21 16h-3a2 2 0 0 0-2 2v3"></path><path d="M21 21v.01"></path><path d="M12 7v3a2 2 0 0 1-2 2H7"></path><path d="M3 12h.01"></path><path d="M12 3h.01"></path><path d="M12 16v.01"></path><path d="M16 12h1"></path><path d="M21 12v.01"></path><path d="M12 21v-1"></path></symbol>
<symbol id="book-open" viewBox="0 0 24 24"><path d="M12 7v14"></path><path d="M3 18a1 1 0 0 1-1-1V4a1 1 0 0 1 1-1h5a4 4 0 0 1 4 4 4 4 0 0 1 4-4h5a1 1 0 0 1 1 1v13a1 1 0 0 1-1 1h-6a3 3 0 0 0-3 3 3 3 0 0 0-3-3z"></path></symbol>
<symbol id="audio-lines" viewBox="0 0 24 24"><path d="M2 10v3"></path><path d="M6 6v11"></path><path d="M10 3v18"></path><path d="M14 8v7"></path><path d="M18 5v13"></path><path d="M22 10v3"></path></symbol>
<symbol id="panel-top" viewBox="0 0 24 24"><rect width="18" height="18" x="3" y="3" rx="2"></rect><path d="M3 9h18"></path></symbol>
<symbol id="chart-no-axes-combined" viewBox="0 0 24 24"><path d="M12 16v5"></path><path d="M16 14v7"></path><path d="M20 10v11"></path><path d="m22 3-8.646 8.646a.5.5 0 0 1-.708 0L9.354 8.354a.5.5 0 0 0-.707 0L2 15"></path><path d="M4 18v3"></path><path d="M8 14v7"></path></symbol>
<symbol id="users" viewBox="0 0 24 24"><path d="M16 21v-2a4 4 0 0 0-4-4H6a4 4 0 0 0-4 4v2"></path><circle cx="9" cy="7" r="4"></circle><path d="M22 21v-2a4 4 0 0 0-3-3.87"></path><path d="M16 3.13a4 4 0 0 1 0 7.75"></path></symbol>
<symbol id="pause" viewBox="0 0 24 24"><rect x="14" y="4" width="4" height="16" rx="1"></rect><rect x="6" y="4" width="4" height="16" rx="1"></rect></symbol>
<symbol id="play" viewBox="0 0 24 24"><polygon points="6 3 20 12 6 21 6 3"></polygon></symbol>
<symbol id="rotate-ccw" viewBox="0 0 24 24"><path d="M3 12a9 9 0 1 0 9-9 9.75 9.75 0 0 0-6.74 2.74L3 8"></path><path d="M3 3v5h5"></path></symbol>
</svg>
